<svg width="16" height="16" viewBox="0 0 16 16" fill="none" xmlns="http://www.w3.org/2000/svg">
<path d="M4.25 12.0417C4.41667 12.0417 4.5625 11.9792 4.6875 11.8542C4.8125 11.7292 4.875 11.5833 4.875 11.4167C4.875 11.25 4.8125 11.1042 4.6875 10.9792C4.5625 10.8542 4.41667 10.7917 4.25 10.7917C4.08333 10.7917 3.9375 10.8542 3.8125 10.9792C3.6875 11.1042 3.625 11.25 3.625 11.4167C3.625 11.5833 3.6875 11.7292 3.8125 11.8542C3.9375 11.9792 4.08333 12.0417 4.25 12.0417ZM4.25 8.625C4.41667 8.625 4.5625 8.5625 4.6875 8.4375C4.8125 8.3125 4.875 8.16667 4.875 8C4.875 7.83333 4.8125 7.6875 4.6875 7.5625C4.5625 7.4375 4.41667 7.375 4.25 7.375C4.08333 7.375 3.9375 7.4375 3.8125 7.5625C3.6875 7.6875 3.625 7.83333 3.625 8C3.625 8.16667 3.6875 8.3125 3.8125 8.4375C3.9375 8.5625 4.08333 8.625 4.25 8.625ZM4.25 5.20833C4.41667 5.20833 4.5625 5.14583 4.6875 5.02083C4.8125 4.89583 4.875 4.75 4.875 4.58333C4.875 4.41667 4.8125 4.27083 4.6875 4.14583C4.5625 4.02083 4.41667 3.95833 4.25 3.95833C4.08333 3.95833 3.9375 4.02083 3.8125 4.14583C3.6875 4.27083 3.625 4.41667 3.625 4.58333C3.625 4.75 3.6875 4.89583 3.8125 5.02083C3.9375 5.14583 4.08333 5.20833 4.25 5.20833ZM7 12.0417H12.0833V10.7917H7V12.0417ZM7 8.625H12.0833V7.375H7V8.625ZM7 5.20833H12.0833V3.95833H7V5.20833ZM1.75 15.5C1.41667 15.5 1.125 15.375 0.875 15.125C0.625 14.875 0.5 14.5833 0.5 14.25V1.75C0.5 1.41667 0.625 1.125 0.875 0.875C1.125 0.625 1.41667 0.5 1.75 0.5H14.25C14.5833 0.5 14.875 0.625 15.125 0.875C15.375 1.125 15.5 1.41667 15.5 1.75V14.25C15.5 14.5833 15.375 14.875 15.125 15.125C14.875 15.375 14.5833 15.5 14.25 15.5H1.75ZM1.75 14.25H14.25V1.75H1.75V14.25ZM1.75 1.75V14.25V1.75Z" fill="#C7C9D1"/>
</svg>
